<svg width="186" height="49" viewBox="0 0 186 49" fill="none" xmlns="http://www.w3.org/2000/svg">
<path d="M113.173 28.4129C113.259 22.2351 113.35 16.0573 113.411 9.87515C113.415 9.2262 113.679 9.02981 114.258 9.05543C117.08 9.18351 119.915 9.17924 122.715 9.48664C125.386 9.78123 127.335 12.202 127.348 14.8277C127.356 15.9249 127.335 17.0264 127.352 18.1237C127.391 20.3694 126.548 22.2266 124.798 23.6696C124.02 24.31 123.795 24.9077 124.197 25.9367C125.403 29.0405 126.445 32.2042 127.564 35.3379C127.789 35.9698 127.59 36.1832 126.92 36.1961C123.532 36.243 122.78 36.2302 122.037 32.994C121.57 30.9575 120.706 29.0064 120.014 27.0211C119.902 26.6966 119.85 26.274 119.612 26.0818C119.232 25.7787 118.731 25.4927 118.26 25.4585C117.603 25.4115 117.594 26.0221 117.598 26.4917C117.607 29.1601 117.633 31.8285 117.642 34.4926C117.642 36.0424 117.473 36.1918 115.865 36.1961C112.97 36.2003 112.979 36.2003 113.022 33.3953C113.048 31.7303 113.026 30.0695 113.026 28.4044C113.074 28.4044 113.121 28.4044 113.169 28.4044L113.173 28.4129ZM118.381 20.2669C121.6 20.5828 122.659 19.6948 122.706 16.8514C122.711 16.5397 122.719 16.2238 122.698 15.9121C122.603 14.405 122.162 13.9994 120.606 13.9482C120.157 13.9311 119.703 13.9482 119.258 13.8969C118.623 13.8244 118.376 14.1061 118.376 14.691C118.376 16.5354 118.376 18.3798 118.376 20.2669H118.381Z" fill="white"/>
<path d="M145.874 22.9224C145.874 25.4329 145.879 27.9433 145.874 30.4537C145.866 33.4978 143.394 36.0295 140.269 36.1832C139.435 36.2259 138.597 36.2088 137.763 36.2088C134.651 36.2003 131.877 33.8308 131.583 30.7611C131.393 28.7972 131.419 26.8161 131.401 24.8394C131.375 21.4794 131.535 18.1151 131.35 14.7679C131.19 11.8519 134.426 9.06821 137.132 9.0554C138.225 9.04687 139.318 9.00844 140.408 9.0554C143.255 9.18349 145.775 11.8647 145.848 14.9173C145.913 17.5857 145.861 20.2541 145.861 22.9224C145.866 22.9224 145.87 22.9224 145.874 22.9224ZM136.229 22.4784C136.229 22.4784 136.255 22.4784 136.267 22.4784C136.267 24.4552 136.224 26.4362 136.289 28.4086C136.315 29.1387 136.462 29.9243 136.786 30.5775C137.417 31.8455 138.618 32.1017 139.854 31.3972C141.203 30.633 141.311 29.3607 141.341 28.0457C141.41 25.2237 141.475 22.4016 141.566 19.5838C141.622 17.8717 141.566 16.1981 140.641 14.6611C140.088 13.7432 139.383 13.3931 138.307 13.5852C137.045 13.8115 136.246 14.802 136.229 16.2664C136.203 18.3371 136.224 20.412 136.224 22.4827L136.229 22.4784Z" fill="white"/>
<path d="M104.288 17.8077C104.189 16.8172 104.206 15.959 103.998 15.1521C103.514 13.2779 100.865 12.6289 99.5256 14.0549C99.2317 14.3666 99.102 14.9002 99.0675 15.3442C98.9378 17.0008 98.8384 18.6616 98.8082 20.3224C98.765 22.5809 98.765 24.8437 98.8082 27.1065C98.8298 28.1012 98.9421 29.1088 99.1236 30.0908C99.4867 32.0163 101.622 32.7335 103.039 31.346C103.601 30.7952 103.864 29.9157 104.158 29.1472C104.297 28.7886 104.189 28.3403 104.189 27.9305C104.189 26.1928 104.171 26.2355 102.551 25.5567C102.17 25.3987 101.76 24.8693 101.721 24.4765C101.647 23.7123 101.755 22.9096 101.946 22.1625C102.015 21.8893 102.529 21.552 102.845 21.5477C104.513 21.5264 106.185 21.5648 107.853 21.663C108.622 21.7057 109.176 22.282 109.037 22.9865C108.471 25.8769 108.921 28.7459 109.05 31.6235C109.098 32.6567 109.098 33.6942 109.029 34.7274C108.942 36.0295 108.091 36.6699 106.95 36.0082C105.589 35.2183 104.487 35.6496 103.173 35.9271C101.794 36.2217 100.29 36.243 98.886 36.068C96.8721 35.8161 94.6984 33.6216 94.6119 31.4997C94.3786 25.7958 94.331 20.0833 94.2749 14.3751C94.2489 11.7323 96.8851 9.14507 100.234 9.05968C101.228 9.03406 102.227 9.0426 103.225 9.05114C104.781 9.05968 105.982 9.75986 106.985 10.8742C108.493 12.5521 109.301 14.4519 109.085 16.7233C109.02 17.4277 108.635 17.7778 107.996 17.7992C106.756 17.8461 105.511 17.812 104.288 17.812V17.8077Z" fill="black"/>
<path d="M163.956 20.1644C163.956 23.1487 163.947 26.1288 163.956 29.1131C163.964 31.2521 163.601 33.2928 161.847 34.7487C161.147 35.3294 160.222 35.8246 159.332 35.9698C157.888 36.2046 156.384 36.2345 154.919 36.1405C152.555 35.9868 150.438 34.0016 149.772 31.4143C149.53 30.4793 149.375 29.4973 149.37 28.5325C149.332 22.5339 149.34 16.5354 149.34 10.5326C149.34 9.41404 149.656 9.08957 150.822 9.04688C151.626 9.01699 152.43 9.06822 153.234 9.03407C153.804 9.00845 154.072 9.26461 154.12 9.78121C154.202 10.7205 154.319 11.6598 154.323 12.599C154.349 17.9998 154.427 23.4049 154.314 28.8057C154.258 31.5723 156.428 32.3365 158.411 31.3716C158.774 31.1966 159.042 30.7397 159.232 30.3555C159.375 30.0652 159.358 29.6809 159.358 29.3394C159.375 23.6226 159.379 17.9102 159.396 12.1934C159.396 11.5359 159.435 10.8785 159.47 10.221C159.517 9.39697 160.058 9.07676 160.818 9.05114C161.557 9.02553 162.296 9.06395 163.035 9.05114C163.774 9.03834 164.051 9.36281 164.046 10.0843C164.025 13.4444 164.038 16.8044 164.038 20.1644C164.008 20.1644 163.982 20.1644 163.951 20.1644H163.956Z" fill="white"/>
<path d="M168.636 22.3461C168.636 18.3243 168.666 14.3068 168.614 10.285C168.601 9.36707 168.908 9.03406 169.811 9.07675C172.474 9.20056 175.149 9.19203 177.798 9.44392C180.226 9.67447 182.02 11.0364 183.139 13.154C183.377 13.6023 183.442 14.1787 183.442 14.6953C183.429 16.672 183.407 18.653 183.273 20.6255C183.234 21.1976 182.949 21.8423 182.573 22.2906C180.793 24.4295 178.282 24.9547 175.628 25.2663C172.945 25.5823 173.476 25.1511 173.381 27.5889C173.29 29.9755 173.264 32.3621 173.295 34.7487C173.303 35.6581 172.953 36.0039 172.076 36.0125C171.436 36.021 170.792 36.1533 170.157 36.1192C169.012 36.0594 168.688 35.7179 168.666 34.5907C168.64 33.1477 168.658 31.7003 168.658 30.2573C168.658 27.6188 168.658 24.9803 168.658 22.3418C168.649 22.3418 168.645 22.3418 168.636 22.3418V22.3461ZM173.515 20.4163C174.414 20.4163 175.053 20.4206 175.689 20.4163C175.944 20.4163 176.203 20.3907 176.454 20.3523C177.746 20.1601 178.351 19.5624 178.385 18.32C178.411 17.2911 178.372 16.2536 178.277 15.2247C178.247 14.9045 178.027 14.4861 177.754 14.3196C176.769 13.6963 175.658 13.6023 174.518 13.8414C173.874 13.978 173.506 14.3367 173.511 15.0112C173.511 16.7574 173.511 18.5036 173.511 20.4206L173.515 20.4163Z" fill="white"/>
<path d="M64.1665 38.5912C64.9876 37.5964 65.1216 37.5879 66.0507 38.3393C69.4475 41.0845 73.3066 41.6139 77.2436 39.936C81.2497 38.2283 83.7648 35.1415 83.929 30.7056C84.063 27.0083 84.05 23.2939 83.9161 19.5966C83.7432 14.7423 78.8166 10.2978 73.8468 9.96479C66.2539 9.45673 61.6384 15.9548 62.0879 21.4623C62.5978 27.7042 68.4924 32.3066 74.8062 31.2008C75.368 31.1026 75.9298 30.9489 76.4657 30.7525C77.0837 30.5305 77.464 30.8251 77.5375 31.3161C77.5763 31.5637 77.2263 32.0376 76.9454 32.1401C69.4432 34.8939 60.9902 29.2796 60.5624 21.4239C60.1821 14.4434 65.2469 10.1228 69.8235 8.87182C76.9497 6.92924 84.5816 11.7665 85.2514 18.9989C85.649 23.3195 85.6404 27.7383 85.2125 32.059C84.7285 36.9389 81.5003 40.141 76.8374 41.6865C72.317 43.1851 68.1597 42.2202 64.5944 39.0565C64.4561 38.9327 64.3437 38.7833 64.1709 38.5954L64.1665 38.5912Z" fill="white"/>
<path d="M53.6565 25.5524C51.7896 24.7455 49.927 23.9258 48.0558 23.1274C43.2675 21.0781 38.4749 19.033 33.6823 16.988C32.769 16.598 32.5442 15.9662 33.0081 15.0923C36.9407 7.6593 47.0316 6.22905 52.9651 12.2617C53.2546 12.5563 53.5269 12.8637 53.8207 13.154C54.2831 13.6066 54.4041 14.0165 53.8121 14.4861C53.2503 14.9301 52.9607 14.7038 52.5848 14.2257C49.6245 10.4344 45.6832 9.24326 41.0462 10.3875C38.3711 11.0492 36.3184 12.7143 34.8059 14.9856C34.4169 15.5705 34.512 15.8822 35.2078 16.1725C41.8154 18.9305 48.4101 21.7185 55.0092 24.4893C55.5234 24.7071 55.6876 24.9248 55.437 25.4755C53.2632 30.1975 48.1984 33.3099 43.0428 32.7677C38.6693 32.3109 35.0954 30.3854 32.926 26.449C32.6753 25.9964 32.2345 25.4926 32.9822 25.0913C33.6606 24.7327 33.9977 25.1084 34.3391 25.6762C37.2216 30.4409 42.6668 32.6866 48.2589 30.5519C50.4283 29.7236 52.7014 27.6103 53.6522 25.5524H53.6565Z" fill="white"/>
<path d="M26.1757 32.3194C24.5033 32.5628 24.5162 32.5585 24.5205 31.0002C24.5335 27.3925 24.5767 23.7806 24.5335 20.1729C24.4816 15.9462 22.256 12.8893 18.5568 11.0748C10.6959 7.21529 2.83927 13.2736 2.73987 20.2882C2.68802 23.9898 2.73987 27.6956 2.76148 31.3972C2.76148 31.9608 2.83063 32.4304 1.97064 32.4475C1.12361 32.4646 1.03718 32.0846 1.04582 31.4186C1.08472 27.495 0.881602 23.5586 1.1625 19.6563C1.6638 12.6545 8.43569 7.55684 15.5403 8.58577C21.4393 9.43965 25.9856 14.311 26.193 20.2156C26.3313 24.135 26.2319 28.0628 26.2362 31.9864C26.2362 32.1059 26.1973 32.2212 26.1757 32.328V32.3194Z" fill="white"/>
<path d="M89.828 2.15179C89.9836 2.35246 90.204 2.53604 90.2817 2.76232C90.3595 2.9886 90.299 3.25757 90.299 3.50947C90.299 15.784 90.299 28.0543 90.299 40.3288C90.299 41.0205 90.3638 41.7121 90.312 42.3995C90.2947 42.6343 89.9965 42.8478 89.828 43.0698L89.573 42.9246V2.37807C89.6594 2.30122 89.7415 2.22864 89.828 2.15179Z" fill="white"/>
</svg>
